<svg id="Layer_1" data-name="Layer 1" xmlns="http://www.w3.org/2000/svg" xmlns:xlink="http://www.w3.org/1999/xlink" viewBox="0 0 692.31095 125.435"><defs><style>.cls-1{isolation:isolate;}.cls-2{fill:#1f2021;}.cls-3{fill:url(#linear-gradient);}.cls-4{fill:url(#linear-gradient-2);}.cls-5{fill:#fff;}.cls-6{fill:#05b1f6;}</style><linearGradient id="linear-gradient" x1="503.97587" y1="-132.09994" x2="535.87025" y2="-211.66256" gradientTransform="matrix(0.99315, 0.11686, 0.11686, -0.99315, -456.95354, -154.83799)" gradientUnits="userSpaceOnUse"><stop offset="0.00529" stop-color="#000078"/><stop offset="1" stop-color="#0545f6"/></linearGradient><linearGradient id="linear-gradient-2" x1="1061.94194" y1="-379.14437" x2="1190.9102" y2="-336.62057" gradientTransform="matrix(0.95537, 0.29541, 0.29541, -0.95537, -900.50928, -622.51008)" gradientUnits="userSpaceOnUse"><stop offset="0" stop-color="blue"/><stop offset="1" stop-color="#05b1f6"/></linearGradient></defs><g class="cls-1"><path class="cls-2" d="M205.09424,23.589h39.957a17.02272,17.02272,0,0,1,13.78027,6.31836,16.02123,16.02123,0,0,1,3.49024,14.50293q-1.7461,7.16163-2.91846,11.915-1.17335,4.75342-2.13623,8.8457a17.2256,17.2256,0,0,1-6.2583,9.62793A17.40033,17.40033,0,0,1,239.936,78.59l-42.123-.18066a.05294.05294,0,0,1,.06006-.05958h0q-.0608.18018-.90284,3.73047-.843,3.55078-1.98583,8.36426-1.20411,5.11524-2.19629,9.26758-.99317,4.15137-1.2334,5.05469H171.21484q4.6941-19.3169,7.793-32.044,3.09888-12.72655,5.62647-23.07715t3.06885-12.63769Q192.5166,23.59,205.09424,23.589Zm-1.74512,36.10547h33.93945a2.38506,2.38506,0,0,0,2.46729-1.68457l3.36963-12.998a2.40772,2.40772,0,0,0-2.40723-2.82812H209.30664a2.40465,2.40465,0,0,0-1.44434.541,2.57988,2.57988,0,0,0-.96289,1.44434l-1.14355,4.874Q204.91285,52.89562,203.34912,59.69445Z" transform="translate(-0.00002 -2.24123)"/><path class="cls-2" d="M282.8418,104.52648q-8.72608-.542-13.2085-3.91211a20.62546,20.62546,0,0,1-6.77-9.14648q-4.99365-12.457,2.16651-28.34277,9.62694-18.1128,31.4121-19.4375h34.90186l-14.74316,61.0791Zm23.34863-37.6709h-.06055l1.5044-6.43847h-9.32715q-7.52271.12157-12.09522,4.03125a16.38422,16.38422,0,0,0-5.8374,8.666q-4.09276,14.02149,8.30469,14.20118h12.63672Z" transform="translate(-0.00002 -2.24123)"/><path class="cls-2" d="M343.74023,110.48351h10.35059a4.9558,4.9558,0,0,0,3.12891-1.20312,6.18443,6.18443,0,0,0,2.0459-2.708l.42187-1.68555H345.54541A15.31632,15.31632,0,0,1,332.668,98.629q-4.75488-6.2578-2.88867-14.5625l9.80859-40.499h19.79883l-9.80957,40.499a3.7794,3.7794,0,0,0,.66211,2.707,3.1,3.1,0,0,0,2.64746,1.2041h10.65137L374.30957,43.5675h.12012l.06054-.18067h19.79786L379.124,106.57238q-2.28808,8.3042-10.11035,14.5625-7.88379,6.25782-16.00586,6.25781h-13.54Z" transform="translate(-0.00002 -2.24123)"/><path class="cls-2" d="M404.458,43.5675h19.67773L414.32715,84.006a3.63516,3.63516,0,0,0,.72168,2.708,2.97625,2.97625,0,0,0,2.52734,1.20313h13.66016l11.373-44.34961h19.73828l-15.34473,61.13867H429.13086l-.06055.06055H410.47559a15.15873,15.15873,0,0,1-12.81739-6.25879q-4.75488-6.19629-3.00879-14.502Z" transform="translate(-0.00002 -2.24123)"/><path class="cls-2" d="M503.26758,43.86828q8.7246.48194,13.209,3.88184a20.84755,20.84755,0,0,1,6.76953,9.17675q4.99367,12.45557-2.166,28.28223-9.62988,18.17431-31.41211,19.49707H474.14258l-5.7168,22.68652H449.169l14.74316-60.65722h19.73828l-5.2959,21.24218h9.86817q7.22167-.24022,11.6748-4.03222a16.702,16.702,0,0,0,5.83692-8.665q4.09277-14.02-8.30469-14.20117h-9.207v-.06055H465.2959l4.21191-17.39062Z" transform="translate(-0.00002 -2.24123)"/><path class="cls-2" d="M610.01953,104.76672h-19.7373L600.3916,64.32824a3.36118,3.36118,0,0,0-.66113-2.708,3.145,3.145,0,0,0-2.58789-1.20312h-8.60547a19.20945,19.20945,0,0,1-.541,3.91113l-10.16992,40.43848H558.08789l10.10938-40.43848a3.36164,3.36164,0,0,0-.66211-2.708,3.14187,3.14187,0,0,0-2.58692-1.20312h-8.5459l-10.71093,44.34961H525.89355l14.86426-61.13867h17.93164V43.5675h13.54q11.55322,0,15.70606,11.79492l2.76758-11.73437h6.80078l.05957-.06055h6.7998a15.37951,15.37951,0,0,1,12.9375,6.25781q4.69482,6.19921,2.88867,14.50293Z" transform="translate(-0.00002 -2.24123)"/><path class="cls-2" d="M644.74219,104.52648q-8.72754-.542-13.209-3.91211a20.61735,20.61735,0,0,1-6.76953-9.14648q-4.99512-12.457,2.166-28.34277,9.627-18.1128,31.41211-19.4375h19.918q9.208.602,12.125,5.38574a13.49423,13.49423,0,0,1,1.415,10.74219l-.12011.60156L686.32422,82.3214H650.5791q-2.94873-.42041-3.03906-4.39355a14.13471,14.13471,0,0,1,2.49707-8.00293,9.41831,9.41831,0,0,1,7.52246-4.45312h13.41895l1.26367-5.05469h-12.457q-7.22022.24023-11.67383,4.03125a16.38884,16.38884,0,0,0-5.83692,8.666q-3.49071,13.7798,8.30469,14.20118h34.60059l-4.21192,17.45117Z" transform="translate(-0.00002 -2.24123)"/></g><path class="cls-3" d="M83.49425,74.59191S73.33356,96.12405,65.66632,113.6602a19.97928,19.97928,0,0,1-7.74,9.26467c-7.3084,4.89338-18.46625,6.48046-31.25945,2.50222C7.6142,119.50239-3.811,101.39056,1.16487,84.95762l6.3335-20.56343Z" transform="translate(-0.00002 -2.24123)"/><path class="cls-4" d="M136.65428,97.239c-2.61661,6.19743-16.65039,4.08707-26.841.71936C71.13382,85.17584,82.5851,83.769,39.14995,75.54747,25.86646,73.03314,5.14409,71.92629,5.14409,71.92629L20.1097,24.04469C25.49605,6.62462,43.17439,1.90479,61.40475,2.25951a196.53806,196.53806,0,0,1,75.94539,16.254c12.12366,5.30861,17.25159,16.87532,15.30884,23.35787C152.659,41.87138,142.682,82.96246,136.65428,97.239Z" transform="translate(-0.00002 -2.24123)"/><path class="cls-5" d="M145.87614,68.029q-12.68833-3.84846-25.37741-7.6971a8.08032,8.08032,0,0,1-5.30359-10.05425l1.72312-5.83133a7.94,7.94,0,0,1,9.80627-5.47031l.07733.02238q12.356,3.74777,24.71277,7.49551Q148.695,57.26136,145.87614,68.029Z" transform="translate(-0.00002 -2.24123)"/><ellipse class="cls-6" cx="137.81693" cy="54.62731" rx="5.13846" ry="5.27176" transform="translate(69.22322 183.81118) rotate(-84.06112)"/><circle class="cls-5" cx="141.48549" cy="52.59072" r="1.91236"/></svg>